<?xml version="1.0" encoding="UTF-8"?>
<svg id="Layer_1" data-name="Layer 1" xmlns="http://www.w3.org/2000/svg" xmlns:xlink="http://www.w3.org/1999/xlink" viewBox="0 0 492.19 418.36">
  <defs>
    <style>
      .cls-1 {
        fill: #151e2d;
      }

      .cls-2 {
        fill: #fefefe;
      }

      .cls-3 {
        clip-path: url(#clippath);
      }
    </style>
    <clipPath id="clippath">
      <rect class="cls-1" x="5.12" y="5.1" width="481.95" height="408.16"/>
    </clipPath>
  </defs>
  <g>
    <rect class="cls-1" x="5.12" y="5.1" width="481.95" height="408.16"/>
    <g class="cls-3">
      <path class="cls-2" d="M217.83,329.29c3.75,3.22,8.16,6.63,13.25,10.01,5.41,3.58,10.57,6.44,15.23,8.73v-6.77c-6.75-4.39-13.5-8.77-20.25-13.16-18.67-15.02-5.15-35.82-7.42-54.86-1.85-15.49-31.55-22.24-43.23-30.21-3.72-2.54-4.38-4.55-5.3-8.8-1.17-5.39-1.9-12.48-2.5-18.06-1.35-12.37-1.62-24.93-2.94-37.31,5.83,6.28,11.73,12.88,17.01,19.7,7.48,9.66,13.96,21.64,21.51,30.78,1.65,2,2.96,3.34,4.52,4.36,2.18,1.42,4.21,1.95,5.35,2.23,4.4,1.07,16.7,3.31,33.26,5.84v-6.87c-8.77-1.49-17.54-2.97-26.3-4.46-1.81-11.11-3.63-22.23-5.44-33.34,10.56,1.02,21.13,2.05,31.69,3.07v-6.77c-26-2.66-45.03-4.69-45.66-4.81-.83-.15-1.62-.31-1.62-.31,0,0-.01,0-.01,0-.47-.1-.93-.19-1.42-.3-8.79-1.94-22.03-8.69-28.77-14.7-9.64-8.61-11.08-25.56-15.26-37.32,13.96,4.73,29.17,9.3,45.55,13.44,16.67,4.21,32.49,7.45,47.25,9.94v-6.77c-15.83-3.04-29.76-5.97-41.83-8.55-10.87-2.32-21.51-5.78-31.85-9.86-.61-.24-1.42-.22-1.51-1.13,7.02-1.74,14.14-5.71,20.59-9.09,11.91-6.24,13.73-9.36,25.42-14.53,6.9-3.05,14.38-5.58,16.99-6.45,4.88-1.64,9.07-2.87,12.19-3.73v-6.77c-8.62,3.43-17.23,6.87-25.85,10.3l9.73-22.59c5.37-3.14,10.75-6.28,16.12-9.42v-6.77c-7.19,3.77-14.38,7.54-21.58,11.32-12.87,1.05-25.95,2.27-39.22,3.67-6.22.66-12.39,1.34-18.51,2.05,6.96-3.66,14.21-6.87,21.16-10.57,7.65-4.08,17.29-8.17,22.2-15.4,3.38-4.98,6.76-11.15,12.24-24.17,3.65-8.67,6.4-15.91,8.2-20.84h-6.28c-2.94,6.47-8.9,19.46-16.29,34.64-1.04,2.14-2.85,5.92-6.66,9.49-2.44,2.29-5.37,3.79-10.67,6.67-19.21,10.42-41.99,18.69-60.32,29.56-21.62,12.82-27.84,45.07-36.69,66.99,1.19,16.43,1.83,32.9,2.63,49.37.51,10.49,2.65,19.7-.43,30.14-2.75,9.32-9.37,17.31-12.34,25.85-3.79,10.91-5.61,30.03-4.85,41.55.88,13.44,6.09,29.85,5.92,42.9-.1,7.42-7.87,27.38-8.81,34.14-.66,4.74-.9,9.5-.9,9.5.24,5.78.49,11.55.73,17.33h6.58v-24.59c.46-1.3,1.15-3.25,1.93-5.65,4.85-14.85,4.44-18.86,7.3-28.54,2.68-9.06,9.62-21.51,11.19-29.94.64-3.42.27-8.23.81-12.12,1.28-9.16,2.95-18.31,4.62-27.4l3.51,26.73c-.11,6.69,1.83,13.49.72,20.11-7.24,15.08-14.49,30.16-21.73,45.25.24,5.18.47,10.38.69,15.61.2,4.83.38,9.64.55,14.42-1.95,2.04-3.91,4.08-5.86,6.11h9.6c5.16-2.81,10.32-5.61,15.47-8.42.09,2.81.18,5.61.27,8.42h5.92c.15-4.17.24-8.43.24-12.77.02-18.13-1.35-35.05-3.54-50.57,7.34-15.03,14.35-30.77,20.89-47.26.83-2.09,1.65-4.18,2.45-6.26-3.06-21.77-8.06-39.95-1.74-61.78,3.56-12.28,12.07-27.59,13.65-39.81.93-7.22,1.36-16.69,1.77-24.09.18-3.41-.13-6.87.01-10.27l5.6,15.25c1.64,26.35,5.1,52.41,8.41,78.55,1.41,11.09,5.03,28.93,4.81,39.3-.17,8.28-11.06,36.1-11.65,38.33-1.02,3.83-1.61,6.68-2.12,8.96-5.41,23.93-10.5,57.35-12.72,72.43h6.99c3.75-20.42,7.49-40.83,11.24-61.25l16.34,22.73c-.35,4.28-.71,8.55-1.06,12.83-3.34,8.56-6.68,17.13-10.01,25.69h8.02c3.11-8.47,6.22-16.94,9.32-25.41,2.92,8.47,5.83,16.94,8.75,25.41h7.25c-3.87-11.71-7.74-23.41-11.61-35.12.08-4.53,9.4-12.08,10.6-16.73.38-.3,1.06.99,1.28,1.35,4.37,6.97,7.93,12.76,10.03,20.52,3.15,11.63,4.67,22.37,5.45,29.98h7.46c-1.02-6.17-2.38-12.82-4.23-19.84-2.4-9.16-5.2-17.4-8.06-24.66-1.04-2.02-2.29-4.48-3.83-7.53-1.46-2.9-2.58-4.95-2.14-7.6.72-4.36,10.82-14.21,12.53-19.24ZM194.6,195.38c5.02,1.57,9.56,2.37,13.29,2.78,1.47,10.33,2.93,20.66,4.4,30.99-10.14-13.07-20.28-26.13-30.42-39.2,3.33,1.83,7.6,3.82,12.73,5.42ZM98.81,398.27l-1.14-24.25c2.71-7.77,7.4-14.79,9.92-22.56l3.41,42.04-12.19,4.77ZM99.46,300.33c-.68,5.95-.22,12.81-1.38,18.51-1.23,6.05-5.01,12.41-6.3,18.57-.93.07-.96-1.47-1.09-2.12-4.59-23.02-6.17-47.93.64-70.6l11.56-22.66,2.95,23.08c-1.75,11.79-5.03,23.36-6.38,35.22ZM130.4,290.3c-.61,7.48-9.61,17.8-11.13,25.46-.97.16-.54-.79-.58-1.45-.84-13.3-7.41-42.91-3.61-53.95,2.1-6.11,7.31-12.08,11.21-17.16-.52,4.54-.86,9.15-.57,13.75.59,9.65,5.4,24.63,4.68,33.36ZM142.62,191.35c-4.63,12.93-9.25,25.86-13.88,38.79-5.89,8.45-11.77,16.9-17.66,25.35l-3.93-18-2.43-20.82,23.63-13.84.41-41.13,17.42-22.07c-1.19,17.24-2.38,34.49-3.56,51.73ZM147.27,124.73c-8.22,11.39-17.45,22.2-25.96,33.38l-.22,39.16-17.52,10.38-2.31-50.19c5.15-14.21,10.25-29.98,17.07-43.45,6.49-12.83,13.32-16,25.55-22.04,6.56-3.24,13.31-6.36,20.18-8.89-3.72,10.36-5.96,23.64-11.06,33.3-1.47,2.78-3.87,5.77-5.74,8.36ZM170.56,88.08c17.22-4.74,35.32-4.51,52.85-6.78.65.81-7.13,17-8.32,18.99-3.33,5.59-11.88,9.55-17.71,12.84-6.53,3.68-27.14,15.18-33.58,15.18h-10.28c9.51-12.03,11.32-26.56,17.05-40.23ZM202.16,264.17c8.93,5.12,10.73,8.51,10.16,19.14-.47,8.89-3.18,17.68-3.54,26.6-10.56-4.91-23.13-8.13-30.32-17.94-3.52-13.72-3.87-28.29-5.94-42.33,9.6,5.31,20.11,9.07,29.64,14.53ZM185.01,366.05c-2.06.36-14.16-17.04-15.73-19.84-8.29-14.87-1.87-18.95,2.65-32.48,1.44-4.32,2.46-8.75,3.51-13.17,0,0,19.46,40.49,20.42,48.91.75,6.59-6.61,12.36-10.86,16.58ZM201.76,343.47c-1.05-.12-1.7-1.38-2.01-2-8.31-16.5-11.43-25.43-11.43-25.43-.96-2.73-2.49-6.91-4.68-11.99,6.96,4.21,15.85,6.71,22.63,11.01,3.09,1.96,5,4.16,5.71,6.72.69,2.53-.13,4.87-1.15,8.01-.88,2.7-1.88,4.37-3.81,7.61-3.63,6.09-4.88,6.1-5.26,6.06ZM351.04,320.62c-3.33,0-6.19,2.03-7.4,4.92v-.31h-41.59l-26.6,16.01h-29.08v6.77h30.97l26.6-16.01h39.7v-.31c1.21,2.89,4.07,4.92,7.4,4.92,4.43,0,8.02-3.58,8.02-8s-3.59-8-8.02-8ZM365.19,209.48c-3.16,0-5.88,1.82-7.19,4.47h-40.66l-24.09-20.56h-46.94v6.77h44.43l24.09,20.56h43.02c1.25,2.81,4.06,4.77,7.33,4.77,4.43,0,8.02-3.58,8.02-8s-3.59-8-8.02-8ZM246.37,234.99v6.77h48.63v-.24c1.22,2.86,4.06,4.86,7.37,4.86,4.43,0,8.02-3.58,8.02-8s-3.59-8-8.02-8c-3.31,0-6.15,2-7.37,4.86v-.24h-48.63ZM314.15,119.14h30.25c1.28,2.73,4.04,4.62,7.26,4.62,4.43,0,8.02-3.58,8.02-8s-3.59-8-8.02-8c-3.21,0-5.98,1.89-7.26,4.62h-27.75l-23.4-19.93h-46.88v6.77h44.38l23.4,19.93ZM314.15,179.38h30.25c1.28,2.73,4.04,4.62,7.26,4.62,4.43,0,8.02-3.58,8.02-8s-3.59-8-8.02-8c-3.21,0-5.98,1.89-7.26,4.62h-27.75l-23.4-19.93h-46.88v6.77h44.38l23.4,19.93ZM287.01,70.55c1.24,2.82,4.06,4.8,7.34,4.8,4.43,0,8.02-3.58,8.02-8s-3.59-8-8.02-8c-3.29,0-6.1,1.97-7.34,4.8v-.18h-40.65v6.77h40.65v-.18ZM246.28,8.39h237.26v401.58h-237.26V8.39Z"/>
    </g>
  </g>
  <path class="cls-1" d="M492.19,418.36H0V0h492.19v418.36ZM10.24,408.16h471.71V10.2H10.24v397.96Z"/>
</svg>